<?xml version="1.0" encoding="UTF-8" standalone="no"?>
<!-- Created with Inkscape (http://www.inkscape.org/) -->

<svg
   xmlns:dc="http://purl.org/dc/elements/1.1/"
   xmlns:cc="http://creativecommons.org/ns#"
   xmlns:rdf="http://www.w3.org/1999/02/22-rdf-syntax-ns#"
   xmlns:svg="http://www.w3.org/2000/svg"
   xmlns="http://www.w3.org/2000/svg"
   xmlns:sodipodi="http://sodipodi.sourceforge.net/DTD/sodipodi-0.dtd"
   xmlns:inkscape="http://www.inkscape.org/namespaces/inkscape"
   width="324.56189mm"
   height="400mm"
   viewBox="0 0 324.56189 400"
   version="1.1"
   id="svg8"
   inkscape:version="0.92.5 (2060ec1f9f, 2020-04-08)"
   sodipodi:docname="letter-F.svg">
  <defs
     id="defs2" />
  <sodipodi:namedview
     id="base"
     pagecolor="#ffffff"
     bordercolor="#666666"
     borderopacity="1.0"
     inkscape:pageopacity="0.0"
     inkscape:pageshadow="2"
     inkscape:zoom="0.35"
     inkscape:cx="1511.0506"
     inkscape:cy="783.9627"
     inkscape:document-units="mm"
     inkscape:current-layer="layer1"
     showgrid="false"
     inkscape:window-width="1920"
     inkscape:window-height="1136"
     inkscape:window-x="0"
     inkscape:window-y="27"
     inkscape:window-maximized="0"
     fit-margin-top="50"
     fit-margin-left="50"
     fit-margin-right="50"
     fit-margin-bottom="50" />
  <metadata
     id="metadata5">
    <rdf:RDF>
      <cc:Work
         rdf:about="">
        <dc:format>image/svg+xml</dc:format>
        <dc:type
           rdf:resource="http://purl.org/dc/dcmitype/StillImage" />
        <dc:title></dc:title>
      </cc:Work>
    </rdf:RDF>
  </metadata>
  <g
     inkscape:label="Layer 1"
     inkscape:groupmode="layer"
     id="layer1"
     transform="translate(65.394331,102.44355)">
    <path
       id="path4599"
       style="opacity:1;vector-effect:none;fill:#000000;fill-opacity:1;stroke:none;stroke-width:0.19213198;stroke-linecap:butt;stroke-linejoin:miter;stroke-miterlimit:4;stroke-dasharray:none;stroke-dashoffset:0;stroke-opacity:1"
       d="m 108.24932,169.70945 c 3.63701,17.41396 5.77699,37.89039 17.20503,38.59882 19.7419,1.22381 34.91214,-24.61015 40.16535,-43.6796 6.60567,-23.979 3.46101,-56.65903 -15.25441,-73.040724 C 138.61958,81.306882 119.0195,85.377229 103.6613,88.167919 36.507515,107.82065 7.552865,150.11894 26.618487,191.98783 c 3.638471,10.37293 14.240166,19.17282 25.171422,20.33197 19.717477,2.09085 45.022051,-32.29088 56.459411,-42.61035 z m -3.3561,20.64361 C 90.596514,203.25239 67.285799,227.35944 42.638953,224.74588 28.974884,223.29694 16.15163,210.58162 11.603542,197.61547 1.7124253,169.41686 6.4583454,130.71982 28.481407,111.43695 61.855017,82.215822 129.82998,50.22013 163.71385,77.690865 c 23.39428,20.477118 27.3251,61.327155 19.068,91.300895 -6.56651,23.83681 -25.5293,56.12926 -50.20667,54.5995 -14.28506,-0.88553 -23.1357,-11.47076 -27.68196,-33.2382 z"
       inkscape:connector-curvature="0"
       sodipodi:nodetypes="cssscccccssscssc" />
    <path
       id="path4675"
       style="opacity:1;vector-effect:none;fill:#000000;fill-opacity:1;stroke:none;stroke-width:0.15875;stroke-linecap:butt;stroke-linejoin:miter;stroke-miterlimit:4;stroke-dasharray:none;stroke-dashoffset:0;stroke-opacity:1"
       d="m 218.97664,8.3158543 c -8.83879,-1.255925 -16.90342,7.8876587 -22.07671,15.1635707 -4.06237,5.713498 -7.90269,13.679991 -5.55324,20.28506 3.3399,14.152959 20.73828,12.958692 29.18377,3.764925 7.027,-6.770618 9.45848,-18.80144 7.36561,-28.332436 -1.00585,-4.580745 -4.2762,-10.2213387 -8.91943,-10.8811197 z m 3.70305,-12.1024184 c 7.45128,2.36128 13.18928,10.5006054 14.86572,18.1351891 3.48809,15.884997 -0.56437,35.936385 -12.27602,47.220739 -7.48347,7.210444 -20.59396,10.031284 -30.44352,6.717804 -7.96739,-2.680297 -14.48867,-11.012511 -16.33432,-19.213548 -2.09029,-9.288071 2.40891,-19.476439 7.39361,-27.587574 5.70893,-9.289573 14.79691,-16.5952357 24.36329,-21.82710837 3.77262,-2.06325673 8.33216,-4.74448263 12.43124,-3.44550173 z"
       inkscape:connector-curvature="0"
       sodipodi:nodetypes="aaccaaaaaaaaaa" />
    <path
       sodipodi:nodetypes="aaccaaaaaaaaaa"
       inkscape:connector-curvature="0"
       d="m 144.90029,-25.690815 c -8.92111,0.339683 -15.22677,10.774341 -19.0203,18.8558602 -2.97889,6.34610743 -5.3377,14.8695511 -1.84854,20.9500588 5.80915,13.330985 22.71603,9.054618 29.3875,-1.49731 5.70762,-7.9147374 5.9557,-20.1862988 2.19746,-29.191611 -1.80625,-4.328098 -6.02965,-9.295428 -10.71612,-9.116998 z m 1.48651,-12.568666 c 7.75285,0.99529 14.84978,7.981485 17.86022,15.194985 6.26369,15.0088632 5.85025,35.461482 -3.66244,48.652706 -6.07838,8.428891 -18.4761,13.541472 -28.75855,12.036718 -8.31755,-1.217207 -16.2196,-8.253588 -19.49751,-15.994311 -3.71239,-8.766739 -1.1013,-19.5939184 2.35778,-28.4636698 3.96166,-10.1584102 11.60189,-18.9669892 20.0825,-25.8202632 3.34443,-2.702676 7.35303,-6.153692 11.618,-5.606165 z"
       style="opacity:1;vector-effect:none;fill:#000000;fill-opacity:1;stroke:none;stroke-width:0.15875;stroke-linecap:butt;stroke-linejoin:miter;stroke-miterlimit:4;stroke-dasharray:none;stroke-dashoffset:0;stroke-opacity:1"
       id="path4681" />
    <path
       id="path4683"
       style="opacity:1;vector-effect:none;fill:#000000;fill-opacity:1;stroke:none;stroke-width:0.15875;stroke-linecap:butt;stroke-linejoin:miter;stroke-miterlimit:4;stroke-dasharray:none;stroke-dashoffset:0;stroke-opacity:1"
       d="m 57.917828,-17.590897 c -8.240681,3.43406 -10.504866,15.4139119 -11.236971,24.3114323 -0.574871,6.9868717 0.191741,15.7973987 5.584842,20.2763807 10.099279,10.462597 24.447922,0.550667 27.013923,-11.666834 2.583908,-9.4097517 -1.469574,-20.995175 -8.136321,-28.120798 -3.204126,-3.424697 -8.896444,-6.604161 -13.225473,-4.800181 z m -2.996805,-12.29635 c 7.612239,-1.77513 16.702235,2.292462 22.04247,8.000284 C 88.0747,-10.010901 94.83053,9.2981443 90.524028,24.981055 87.77228,35.002072 77.940896,44.1227 67.780417,46.303927 59.561535,48.06834 49.699591,44.234918 43.924593,38.126493 37.384133,31.208406 36.049316,20.151105 36.192736,10.631801 c 0.164276,-10.90234237 4.24691,-21.824625 9.799908,-31.208245 2.189889,-3.700548 4.74076,-8.334276 8.928379,-9.310803 z"
       inkscape:connector-curvature="0"
       sodipodi:nodetypes="aaccaaaaaaaaaa" />
    <path
       sodipodi:nodetypes="aaccaaaaaaaaaa"
       inkscape:connector-curvature="0"
       d="m -15.348446,24.75706 c -6.821382,5.759369 -5.367316,17.864284 -3.382057,26.56834 1.558969,6.834944 4.946931,15.004071 11.4396972,17.648098 C 5.4935388,75.903265 16.184939,62.125614 14.946967,49.7031 14.572818,39.952204 7.2141717,30.128608 -1.2911032,25.345269 -5.3788578,23.046307 -11.765004,21.731538 -15.348446,24.75706 Z M -21.91401,13.936966 c 6.722493,-3.9881517 16.6159652,-2.851264 23.428913,0.980327 14.175429,7.972265 26.439866,24.344921 27.063456,40.596404 0.398467,10.384314 -6.224626,22.045208 -15.254248,27.189045 -7.304124,4.160877 -17.8629848,3.480057 -25.211267,-0.60237 -8.322277,-4.623547 -12.929568,-14.763491 -15.663618,-23.882848 -3.131257,-10.444284 -2.532601,-22.08927 -0.06801,-32.710661 0.971936,-4.188676 2.006622,-9.375949 5.704778,-11.569897 z"
       style="opacity:1;vector-effect:none;fill:#000000;fill-opacity:1;stroke:none;stroke-width:0.15875;stroke-linecap:butt;stroke-linejoin:miter;stroke-miterlimit:4;stroke-dasharray:none;stroke-dashoffset:0;stroke-opacity:1"
       id="path4685" />
  </g>
</svg>
