<?xml version="1.0" encoding="UTF-8" standalone="no"?>
<!-- Created with Inkscape (http://www.inkscape.org/) -->

<svg
   xmlns:dc="http://purl.org/dc/elements/1.1/"
   xmlns:cc="http://creativecommons.org/ns#"
   xmlns:rdf="http://www.w3.org/1999/02/22-rdf-syntax-ns#"
   xmlns:svg="http://www.w3.org/2000/svg"
   xmlns="http://www.w3.org/2000/svg"
   xmlns:sodipodi="http://sodipodi.sourceforge.net/DTD/sodipodi-0.dtd"
   xmlns:inkscape="http://www.inkscape.org/namespaces/inkscape"
   width="324.56189mm"
   height="400mm"
   viewBox="0 0 324.56189 400"
   version="1.1"
   id="svg8"
   inkscape:version="0.92.5 (2060ec1f9f, 2020-04-08)"
   sodipodi:docname="letter-G.svg">
  <defs
     id="defs2" />
  <sodipodi:namedview
     id="base"
     pagecolor="#ffffff"
     bordercolor="#666666"
     borderopacity="1.0"
     inkscape:pageopacity="0.0"
     inkscape:pageshadow="2"
     inkscape:zoom="0.49497475"
     inkscape:cx="171.4272"
     inkscape:cy="341.91322"
     inkscape:document-units="mm"
     inkscape:current-layer="layer1"
     showgrid="false"
     inkscape:window-width="1920"
     inkscape:window-height="1136"
     inkscape:window-x="0"
     inkscape:window-y="27"
     inkscape:window-maximized="0"
     fit-margin-top="50"
     fit-margin-left="50"
     fit-margin-right="50"
     fit-margin-bottom="50" />
  <metadata
     id="metadata5">
    <rdf:RDF>
      <cc:Work
         rdf:about="">
        <dc:format>image/svg+xml</dc:format>
        <dc:type
           rdf:resource="http://purl.org/dc/dcmitype/StillImage" />
        <dc:title></dc:title>
      </cc:Work>
    </rdf:RDF>
  </metadata>
  <g
     inkscape:label="Layer 1"
     inkscape:groupmode="layer"
     id="layer1"
     transform="translate(65.394331,102.44355)">
    <path
       id="path4599"
       style="opacity:1;vector-effect:none;fill:#000000;fill-opacity:1;stroke:none;stroke-width:0.19213198;stroke-linecap:butt;stroke-linejoin:miter;stroke-miterlimit:4;stroke-dasharray:none;stroke-dashoffset:0;stroke-opacity:1"
       d="m 108.24932,169.70945 c 3.63701,17.41396 5.77699,37.89039 17.20503,38.59882 19.7419,1.22381 34.91214,-24.61015 40.16535,-43.6796 6.60567,-23.979 3.46101,-56.65903 -15.25441,-73.040724 C 138.61958,81.306882 119.0195,85.377229 103.6613,88.167919 36.507515,107.82065 7.552865,150.11894 26.618487,191.98783 c 3.638471,10.37293 14.240166,19.17282 25.171422,20.33197 19.717477,2.09085 45.022051,-32.29088 56.459411,-42.61035 z m -3.3561,20.64361 C 90.596514,203.25239 67.285799,227.35944 42.638953,224.74588 28.974884,223.29694 16.15163,210.58162 11.603542,197.61547 1.7124253,169.41686 6.4583454,130.71982 28.481407,111.43695 61.855017,82.215822 129.82998,50.22013 163.71385,77.690865 c 23.39428,20.477118 27.3251,61.327155 19.068,91.300895 -6.56651,23.83681 -25.5293,56.12926 -50.20667,54.5995 -14.28506,-0.88553 -23.1357,-11.47076 -27.68196,-33.2382 z"
       inkscape:connector-curvature="0"
       sodipodi:nodetypes="cssscccccssscssc" />
    <path
       style="opacity:1;vector-effect:none;fill:#000000;fill-opacity:1;stroke:none;stroke-width:0.29774037;stroke-linecap:butt;stroke-linejoin:miter;stroke-miterlimit:4;stroke-dasharray:none;stroke-dashoffset:0;stroke-opacity:1"
       d="m 105.53036,-74.630527 c 14.53976,17.520187 26.64916,66.9898902 24.12663,101.758288 -0.77091,10.625463 -1.16423,30.542503 -11.7849,29.708046 -12.74325,-1.00123 -16.08542,-23.957504 -8.39982,-37.416313 12.82293,-23.6712571 0.66895,-60.425198 -3.94191,-94.050021 z"
       id="path4608"
       inkscape:connector-curvature="0"
       sodipodi:nodetypes="caacc" />
    <path
       sodipodi:nodetypes="caacc"
       inkscape:connector-curvature="0"
       id="path4616"
       d="m 207.38703,-59.951836 c 8.21792,21.232697 3.97769,71.986113 -9.46369,104.150277 -4.1078,9.829596 -10.81049,28.589027 -20.61534,24.422517 -11.76439,-4.999207 -7.63763,-27.827477 3.92683,-38.14599 19.68101,-18.368817 19.83781,-57.079887 26.1522,-90.426804 z"
       style="opacity:1;vector-effect:none;fill:#000000;fill-opacity:1;stroke:none;stroke-width:0.29774037;stroke-linecap:butt;stroke-linejoin:miter;stroke-miterlimit:4;stroke-dasharray:none;stroke-dashoffset:0;stroke-opacity:1" />
    <path
       sodipodi:nodetypes="caacc"
       inkscape:connector-curvature="0"
       id="path4618"
       d="m 11.973488,-47.775739 c 18.365142,13.456708 42.145405,58.494337 48.156876,92.831883 1.837147,10.493783 6.30092,29.908141 -4.203672,31.682481 C 43.3227,78.867572 34.496288,57.414017 38.676832,42.489849 45.355948,16.410252 24.625838,-16.282777 11.973488,-47.775739 Z"
       style="opacity:1;vector-effect:none;fill:#000000;fill-opacity:1;stroke:none;stroke-width:0.29774037;stroke-linecap:butt;stroke-linejoin:miter;stroke-miterlimit:4;stroke-dasharray:none;stroke-dashoffset:0;stroke-opacity:1" />
  </g>
</svg>
