<?xml version="1.0" encoding="UTF-8" standalone="no"?>
<!-- Created with Inkscape (http://www.inkscape.org/) -->

<svg
   xmlns:dc="http://purl.org/dc/elements/1.1/"
   xmlns:cc="http://creativecommons.org/ns#"
   xmlns:rdf="http://www.w3.org/1999/02/22-rdf-syntax-ns#"
   xmlns:svg="http://www.w3.org/2000/svg"
   xmlns="http://www.w3.org/2000/svg"
   xmlns:sodipodi="http://sodipodi.sourceforge.net/DTD/sodipodi-0.dtd"
   xmlns:inkscape="http://www.inkscape.org/namespaces/inkscape"
   width="324.56189mm"
   height="400mm"
   viewBox="0 0 324.56189 400"
   version="1.1"
   id="svg8"
   inkscape:version="0.92.5 (2060ec1f9f, 2020-04-08)"
   sodipodi:docname="letter-E.svg">
  <defs
     id="defs2" />
  <sodipodi:namedview
     id="base"
     pagecolor="#ffffff"
     bordercolor="#666666"
     borderopacity="1.0"
     inkscape:pageopacity="0.0"
     inkscape:pageshadow="2"
     inkscape:zoom="0.35"
     inkscape:cx="1511.0506"
     inkscape:cy="783.9627"
     inkscape:document-units="mm"
     inkscape:current-layer="layer1"
     showgrid="false"
     inkscape:window-width="1920"
     inkscape:window-height="1136"
     inkscape:window-x="0"
     inkscape:window-y="27"
     inkscape:window-maximized="0"
     fit-margin-top="50"
     fit-margin-left="50"
     fit-margin-right="50"
     fit-margin-bottom="50" />
  <metadata
     id="metadata5">
    <rdf:RDF>
      <cc:Work
         rdf:about="">
        <dc:format>image/svg+xml</dc:format>
        <dc:type
           rdf:resource="http://purl.org/dc/dcmitype/StillImage" />
        <dc:title></dc:title>
      </cc:Work>
    </rdf:RDF>
  </metadata>
  <g
     inkscape:label="Layer 1"
     inkscape:groupmode="layer"
     id="layer1"
     transform="translate(65.394331,102.44355)">
    <path
       id="path4599"
       style="opacity:1;vector-effect:none;fill:#000000;fill-opacity:1;stroke:none;stroke-width:0.19213198;stroke-linecap:butt;stroke-linejoin:miter;stroke-miterlimit:4;stroke-dasharray:none;stroke-dashoffset:0;stroke-opacity:1"
       d="m 108.24932,169.70945 c 3.63701,17.41396 5.77699,37.89039 17.20503,38.59882 19.7419,1.22381 34.91214,-24.61015 40.16535,-43.6796 6.60567,-23.979 3.46101,-56.65903 -15.25441,-73.040724 C 138.61958,81.306882 119.0195,85.377229 103.6613,88.167919 36.507515,107.82065 7.552865,150.11894 26.618487,191.98783 c 3.638471,10.37293 14.240166,19.17282 25.171422,20.33197 19.717477,2.09085 45.022051,-32.29088 56.459411,-42.61035 z m -3.3561,20.64361 C 90.596514,203.25239 67.285799,227.35944 42.638953,224.74588 28.974884,223.29694 16.15163,210.58162 11.603542,197.61547 1.7124253,169.41686 6.4583454,130.71982 28.481407,111.43695 61.855017,82.215822 129.82998,50.22013 163.71385,77.690865 c 23.39428,20.477118 27.3251,61.327155 19.068,91.300895 -6.56651,23.83681 -25.5293,56.12926 -50.20667,54.5995 -14.28506,-0.88553 -23.1357,-11.47076 -27.68196,-33.2382 z"
       inkscape:connector-curvature="0"
       sodipodi:nodetypes="cssscccccssscssc" />
    <path
       id="path4675"
       style="opacity:1;vector-effect:none;fill:#000000;fill-opacity:1;stroke:none;stroke-width:0.15875;stroke-linecap:butt;stroke-linejoin:miter;stroke-miterlimit:4;stroke-dasharray:none;stroke-dashoffset:0;stroke-opacity:1"
       d="m 205.10421,-1.4526191 c -8.90601,-0.620163 -16.29561,9.0771144 -20.93494,16.7045931 -3.64307,5.989569 -6.90343,14.210466 -4.08731,20.630463 4.34418,13.877663 21.61248,11.441353 29.37837,1.666758 6.52445,-7.25614 8.08872,-19.430122 5.31914,-28.7869057 -1.33109,-4.4970167 -4.99672,-9.8891074 -9.67526,-10.2149084 z m 2.82745,-12.3363929 c 7.60116,1.821981 13.90693,9.5298009 16.12544,17.0248366 4.61594,15.5946444 2.00883,35.8846324 -8.86523,47.9781954 -6.94827,7.727504 -19.82328,11.479354 -29.88471,8.879244 -8.13877,-2.10325 -15.23962,-9.947404 -17.66744,-17.995337 -2.74962,-9.114666 1.00892,-19.598893 5.40037,-28.045957 5.02949,-9.6743094 13.57135,-17.6116141 22.73878,-23.5146828 3.61529,-2.3279502 7.97126,-5.3286022 12.15279,-4.3262992 z"
       inkscape:connector-curvature="0"
       sodipodi:nodetypes="aaccaaaaaaaaaa" />
    <path
       sodipodi:nodetypes="aaccaaaaaaaaaa"
       inkscape:connector-curvature="0"
       d="m 104.97119,-18.300566 c -8.279247,3.33999 -10.679718,15.2932809 -11.513098,24.1818853 -0.654401,6.9798717 0.01183,15.7985577 5.353573,20.3386667 9.979465,10.576933 24.440055,0.82905 27.145015,-11.358436 2.69091,-9.3797157 -1.23038,-21.0105497 -7.81555,-28.211632 -3.16491,-3.460963 -8.82065,-6.705047 -13.16994,-4.950484 z m -2.85659,-12.32968 c 7.63197,-1.688327 16.67505,2.48252 21.94993,8.250788 10.97525,12.001827 17.51075,31.3865573 13.02592,47.019408 -2.86568,9.989031 -12.8003,18.997104 -22.98496,21.062484 C 105.86706,47.37313 96.049411,43.42765 90.344351,37.253851 83.883099,30.261729 82.674292,19.189945 82.926109,9.6728913 83.214533,-1.2268741 87.421286,-12.101954 93.080782,-21.421727 c 2.231889,-3.675368 4.835369,-8.279748 9.033818,-9.208519 z"
       style="opacity:1;vector-effect:none;fill:#000000;fill-opacity:1;stroke:none;stroke-width:0.15875;stroke-linecap:butt;stroke-linejoin:miter;stroke-miterlimit:4;stroke-dasharray:none;stroke-dashoffset:0;stroke-opacity:1"
       id="path4681" />
    <path
       id="path4683"
       style="opacity:1;vector-effect:none;fill:#000000;fill-opacity:1;stroke:none;stroke-width:0.15875;stroke-linecap:butt;stroke-linejoin:miter;stroke-miterlimit:4;stroke-dasharray:none;stroke-dashoffset:0;stroke-opacity:1"
       d="M 6.7966703,7.2388053 C -0.08051237,12.931428 1.2555255,25.049944 3.1558714,33.772933 4.6481592,40.622746 7.9563563,48.82452 14.423046,51.53168 27.139257,58.585704 37.96441,44.912886 36.84755,32.478888 36.56844,22.724806 29.305871,12.829966 20.847613,7.9639723 16.782455,5.6252853 10.409424,4.2483476 6.7966703,7.2388053 Z M 0.33685653,-3.6447541 C 7.0978943,-7.5672068 16.979818,-6.3339628 23.755104,-2.4361631 37.852172,5.6738593 49.95648,22.165257 50.421673,38.42205 50.718925,48.80976 43.982515,60.405564 34.903196,65.461151 27.558871,69.550658 17.007146,68.766978 9.6989983,64.613141 1.4221685,59.908714 -3.0860886,49.72436 -5.7311444,40.578786 -8.7604761,30.104473 -8.0483704,18.46587 -5.4803969,7.8690013 -4.4676894,3.6899956 -3.3825027,-1.4869481 0.33685653,-3.6447541 Z"
       inkscape:connector-curvature="0"
       sodipodi:nodetypes="aaccaaaaaaaaaa" />
  </g>
</svg>
