<?xml version="1.0" encoding="UTF-8" standalone="no"?>
<!-- Created with Inkscape (http://www.inkscape.org/) -->

<svg
   xmlns:dc="http://purl.org/dc/elements/1.1/"
   xmlns:cc="http://creativecommons.org/ns#"
   xmlns:rdf="http://www.w3.org/1999/02/22-rdf-syntax-ns#"
   xmlns:svg="http://www.w3.org/2000/svg"
   xmlns="http://www.w3.org/2000/svg"
   xmlns:sodipodi="http://sodipodi.sourceforge.net/DTD/sodipodi-0.dtd"
   xmlns:inkscape="http://www.inkscape.org/namespaces/inkscape"
   width="324.56189mm"
   height="328.58295mm"
   viewBox="0 0 324.56189 328.58295"
   version="1.1"
   id="svg8"
   inkscape:version="0.92.4 (5da689c313, 2019-01-14)"
   sodipodi:docname="letter-X.svg">
  <defs
     id="defs2" />
  <sodipodi:namedview
     id="base"
     pagecolor="#ffffff"
     bordercolor="#666666"
     borderopacity="1.0"
     inkscape:pageopacity="0.0"
     inkscape:pageshadow="2"
     inkscape:zoom="0.49497475"
     inkscape:cx="676.8316"
     inkscape:cy="681.88599"
     inkscape:document-units="mm"
     inkscape:current-layer="layer1"
     showgrid="false"
     inkscape:window-width="2243"
     inkscape:window-height="1416"
     inkscape:window-x="206"
     inkscape:window-y="176"
     inkscape:window-maximized="0"
     fit-margin-top="50"
     fit-margin-left="50"
     fit-margin-right="50"
     fit-margin-bottom="50"
     inkscape:snap-nodes="false" />
  <metadata
     id="metadata5">
    <rdf:RDF>
      <cc:Work
         rdf:about="">
        <dc:format>image/svg+xml</dc:format>
        <dc:type
           rdf:resource="http://purl.org/dc/dcmitype/StillImage" />
        <dc:title></dc:title>
      </cc:Work>
    </rdf:RDF>
  </metadata>
  <g
     inkscape:label="Layer 1"
     inkscape:groupmode="layer"
     id="layer1"
     transform="translate(65.394331,31.026497)">
    <ellipse
       style="opacity:1;vector-effect:none;fill:#000000;fill-opacity:1;fill-rule:evenodd;stroke:none;stroke-width:0.26458332;stroke-linecap:butt;stroke-linejoin:miter;stroke-miterlimit:4;stroke-dasharray:none;stroke-dashoffset:0;stroke-opacity:1"
       id="path4554"
       cx="87.506287"
       cy="130.32454"
       rx="7.8844509"
       ry="23.653353"
       transform="rotate(6.6190534)" />
    <ellipse
       transform="rotate(6.6190534)"
       ry="23.653353"
       rx="7.8844509"
       cy="125.5358"
       cx="149.64229"
       id="ellipse4556"
       style="opacity:1;vector-effect:none;fill:#000000;fill-opacity:1;fill-rule:evenodd;stroke:none;stroke-width:0.26458332;stroke-linecap:butt;stroke-linejoin:miter;stroke-miterlimit:4;stroke-dasharray:none;stroke-dashoffset:0;stroke-opacity:1" />
    <path
       id="path4567"
       style="opacity:1;vector-effect:none;fill:#000000;fill-opacity:1;stroke:none;stroke-width:0.26458332;stroke-linecap:butt;stroke-linejoin:miter;stroke-miterlimit:4;stroke-dasharray:none;stroke-dashoffset:0;stroke-opacity:1"
       d="m 162.30379,159.99225 c -12.40197,13.35309 -26.46156,36.85659 -72.743597,35.69635 -18.55492,-0.46515 -36.06904,-8.99478 -46.658091,-28.75099 l -1.46998,14.83346 c 10.589051,19.75621 30.989711,25.97591 49.865321,27.01374 21.482607,1.18117 43.236377,-10.5834 59.781027,-24.33739 z"
       inkscape:connector-curvature="0"
       sodipodi:nodetypes="csccscc" />
    <path
       id="path825"
       style="opacity:1;vector-effect:none;fill:#000000;fill-opacity:1;stroke:none;stroke-width:0.21166666;stroke-linecap:butt;stroke-linejoin:miter;stroke-miterlimit:4;stroke-dasharray:none;stroke-dashoffset:0;stroke-opacity:1"
       d="M 49.435905,102.04607 C 78.420681,76.919772 135.84119,72.096184 164.43109,97.670891 187.51164,118.31729 190.16352,165.82353 171.22465,190.32466 141.65561,228.57799 62.766958,250.6773 28.559909,216.50826 1.1206295,189.09947 20.130761,127.45009 49.435905,102.04607 Z M 54.623654,80.757992 C 14.49732,111.14267 -19.021638,189.56777 15.165182,226.50843 55.025162,269.57924 153.70054,241.28785 188.15072,193.77893 210.21259,163.35426 201.75054,106.92023 173.6452,81.970752 143.97374,55.631013 86.254341,56.806437 54.623654,80.757992 Z"
       inkscape:connector-curvature="0"
       sodipodi:nodetypes="aaaaasssss" />
    <path
       id="path856"
       style="opacity:1;vector-effect:none;fill:#000000;fill-opacity:1;stroke:none;stroke-width:0.18294008;stroke-linecap:butt;stroke-linejoin:miter;stroke-miterlimit:4;stroke-dasharray:none;stroke-dashoffset:0;stroke-opacity:1"
       d="M 55.429556,54.677865 C 47.069343,47.276408 45.842146,36.290998 48.699454,26.023548 56.325109,3.140868 85.301788,-3.7874992 109.21023,-0.40956316 200.57752,16.001424 105.46627,87.394987 55.429556,54.677865 Z M 109.80495,74.230097 C 124.23631,69.568312 139.20512,62.247451 147.55408,51.987256 157.79318,39.404228 164.34803,22.324963 157.92795,9.6239183 151.7979,-2.5033672 133.42796,-9.7393932 116.47649,-12.335456 97.291627,-15.273556 73.851747,-12.842117 56.433463,-3.8628242 45.510466,1.768086 37.481123,11.827603 34.824445,21.374107 c -3.571635,12.834312 -1.166751,27.852657 9.283517,37.104477 13.953795,12.353561 39.645726,14.566951 61.805458,16.147863 1.2723,0.0908 2.65539,0.003 3.89153,-0.39635 z"
       inkscape:connector-curvature="0"
       sodipodi:nodetypes="cccccsssssscc" />
    <path
       id="path882"
       style="opacity:1;vector-effect:none;fill:#000000;fill-opacity:1;stroke:none;stroke-width:0.26458332;stroke-linecap:butt;stroke-linejoin:miter;stroke-miterlimit:4;stroke-dasharray:none;stroke-dashoffset:0;stroke-opacity:1"
       d="M 237.15478,284.19297 C 200.90385,292.88829 208.03186,201.34134 206.6215,139.28576 206.11893,95.347081 173.37748,57.46057 149.49036,76.257279 l -28.33057,-9.621703 c 18.5196,-12.315834 48.8712,-19.271422 74.30095,-1.069074 49.53202,35.454508 -3.85289,229.849538 48.64305,211.142928 z"
       inkscape:connector-curvature="0"
       sodipodi:nodetypes="ccccscc" />
    <path
       sodipodi:nodetypes="ccccscc"
       inkscape:connector-curvature="0"
       d="M -45.715882,282.86658 C -10.241246,294.32471 -10.305958,202.5007 -4.1262007,140.73748 -0.24517132,96.967661 35.313654,61.712011 57.684073,82.290523 L 86.67084,74.876636 C 69.153501,61.172689 39.426887,51.902938 12.672286,68.095188 -39.440279,99.634441 -1.1672362,297.56005 -52.068636,274.87066 Z"
       style="opacity:1;vector-effect:none;fill:#000000;fill-opacity:1;stroke:none;stroke-width:0.26458332;stroke-linecap:butt;stroke-linejoin:miter;stroke-miterlimit:4;stroke-dasharray:none;stroke-dashoffset:0;stroke-opacity:1"
       id="path885" />
  </g>
</svg>
