<?xml version="1.0" encoding="UTF-8" standalone="no"?>
<!-- Created with Inkscape (http://www.inkscape.org/) -->

<svg
   xmlns:dc="http://purl.org/dc/elements/1.1/"
   xmlns:cc="http://creativecommons.org/ns#"
   xmlns:rdf="http://www.w3.org/1999/02/22-rdf-syntax-ns#"
   xmlns:svg="http://www.w3.org/2000/svg"
   xmlns="http://www.w3.org/2000/svg"
   xmlns:sodipodi="http://sodipodi.sourceforge.net/DTD/sodipodi-0.dtd"
   xmlns:inkscape="http://www.inkscape.org/namespaces/inkscape"
   width="324.56189mm"
   height="400mm"
   viewBox="0 0 324.56189 400"
   version="1.1"
   id="svg8"
   inkscape:version="0.92.5 (2060ec1f9f, 2020-04-08)"
   sodipodi:docname="letter-Y.svg">
  <defs
     id="defs2" />
  <sodipodi:namedview
     id="base"
     pagecolor="#ffffff"
     bordercolor="#666666"
     borderopacity="1.0"
     inkscape:pageopacity="0.0"
     inkscape:pageshadow="2"
     inkscape:zoom="0.49497475"
     inkscape:cx="202.05991"
     inkscape:cy="1881.9472"
     inkscape:document-units="mm"
     inkscape:current-layer="layer1"
     showgrid="false"
     inkscape:window-width="1920"
     inkscape:window-height="1136"
     inkscape:window-x="0"
     inkscape:window-y="27"
     inkscape:window-maximized="0"
     fit-margin-top="50"
     fit-margin-left="50"
     fit-margin-right="50"
     fit-margin-bottom="50"
     inkscape:snap-nodes="false" />
  <metadata
     id="metadata5">
    <rdf:RDF>
      <cc:Work
         rdf:about="">
        <dc:format>image/svg+xml</dc:format>
        <dc:type
           rdf:resource="http://purl.org/dc/dcmitype/StillImage" />
        <dc:title></dc:title>
      </cc:Work>
    </rdf:RDF>
  </metadata>
  <g
     inkscape:label="Layer 1"
     inkscape:groupmode="layer"
     id="layer1"
     transform="translate(65.394331,102.44355)">
    <ellipse
       style="opacity:1;vector-effect:none;fill:#000000;fill-opacity:1;fill-rule:evenodd;stroke:none;stroke-width:0.26458332;stroke-linecap:butt;stroke-linejoin:miter;stroke-miterlimit:4;stroke-dasharray:none;stroke-dashoffset:0;stroke-opacity:1"
       id="path4554"
       cx="50.504982"
       cy="108.25277"
       rx="7.8844509"
       ry="23.653353"
       transform="rotate(6.6190534)" />
    <ellipse
       transform="rotate(6.6190534)"
       ry="23.653353"
       rx="7.8844509"
       cy="103.46405"
       cx="112.64102"
       id="ellipse4556"
       style="opacity:1;vector-effect:none;fill:#000000;fill-opacity:1;fill-rule:evenodd;stroke:none;stroke-width:0.26458332;stroke-linecap:butt;stroke-linejoin:miter;stroke-miterlimit:4;stroke-dasharray:none;stroke-dashoffset:0;stroke-opacity:1" />
    <path
       id="path4567"
       style="opacity:1;vector-effect:none;fill:#000000;fill-opacity:1;stroke:none;stroke-width:0.26458332;stroke-linecap:butt;stroke-linejoin:miter;stroke-miterlimit:4;stroke-dasharray:none;stroke-dashoffset:0;stroke-opacity:1"
       d="m 128.09329,133.80251 c -12.40197,13.35309 -26.46156,36.85659 -72.743597,35.69635 -18.55492,-0.46515 -36.06904,-8.99478 -46.6580902,-28.75099 l -1.46998,14.83346 c 10.5890502,19.75621 30.9897102,25.97591 49.8653202,27.01374 21.48261,1.18117 43.236377,-10.5834 59.781027,-24.33739 z"
       inkscape:connector-curvature="0"
       sodipodi:nodetypes="csccscc" />
    <path
       id="path825"
       style="opacity:1;vector-effect:none;fill:#000000;fill-opacity:1;stroke:none;stroke-width:0.21166666;stroke-linecap:butt;stroke-linejoin:miter;stroke-miterlimit:4;stroke-dasharray:none;stroke-dashoffset:0;stroke-opacity:1"
       d="M 15.225405,75.856345 C 44.210181,50.73006 101.63069,45.906467 130.22059,71.481168 153.30114,92.127556 155.95302,139.63379 137.01415,164.13492 107.44511,202.38825 28.556458,224.48756 -5.650591,190.31852 -33.08987,162.90973 -14.079739,101.26035 15.225405,75.856345 Z M 20.413154,54.568277 C -19.71318,84.952939 -53.232138,163.37803 -19.045318,200.31869 20.814662,243.3895 119.49004,215.09811 153.94022,167.58919 176.00209,137.16452 167.54004,80.730502 139.4347,55.781037 109.76324,29.441296 52.043841,30.61672 20.413154,54.568277 Z"
       inkscape:connector-curvature="0"
       sodipodi:nodetypes="aaaaasssss" />
    <path
       id="path835"
       style="opacity:1;vector-effect:none;fill:#000000;fill-opacity:1;stroke:none;stroke-width:0.26458332;stroke-linecap:butt;stroke-linejoin:miter;stroke-miterlimit:4;stroke-dasharray:none;stroke-dashoffset:0;stroke-opacity:1"
       d="M 250.66743,60.010114 C 184.98312,46.089196 131.33215,18.347619 127.307,52.20572 l 6.14719,3.207227 c 23.27002,-17.467197 78.83346,2.07486 117.64845,7.793044"
       inkscape:connector-curvature="0"
       sodipodi:nodetypes="cccc" />
    <path
       id="path845"
       style="opacity:1;vector-effect:none;fill:#000000;fill-opacity:1;stroke:none;stroke-width:0.26458332;stroke-linecap:butt;stroke-linejoin:miter;stroke-miterlimit:4;stroke-dasharray:none;stroke-dashoffset:0;stroke-opacity:1"
       d="m 101.64912,44.722171 c -2.654749,-8.993164 6.43325,-9.386629 6.88428,-20.282267 0.45103,-10.895637 -5.17442,-46.052074 4.13804,-49.971318 26.95639,-9.036006 71.19141,48.084657 117.78262,32.6615633 l 1.88987,3.1142547 C 186.58802,26.744503 155.741,-16.533116 119.0859,-6.0207387 107.43121,-1.7689701 136.21718,32.903647 111.5381,47.66214 Z"
       inkscape:connector-curvature="0"
       sodipodi:nodetypes="czcccccc" />
    <path
       id="path856"
       style="opacity:1;vector-effect:none;fill:#000000;fill-opacity:1;stroke:none;stroke-width:0.21166666;stroke-linecap:butt;stroke-linejoin:miter;stroke-miterlimit:4;stroke-dasharray:none;stroke-dashoffset:0;stroke-opacity:1"
       d="M -1.8622111,32.619073 C -12.581379,24.179145 -22.025374,6.5178033 -22.377234,-7.1207128 -21.898232,-37.684329 9.6954028,-51.832563 34.768329,-50.664159 c 14.272153,0.870406 34.056003,7.98562 42.025675,19.857279 C 104.59743,29.136353 35.277206,59.856894 -1.8622111,32.619073 Z M 58.885999,50.6021 c 13.031729,-7.946446 25.768895,-19.397979 30.934982,-33.760556 6.33564,-17.61415707 7.56012,-40.54163 -2.873292,-56.083281 -9.962091,-14.839574 -30.682861,-21.72907 -48.523052,-22.817078 -20.190672,-1.231356 -42.9701443,5.038492 -57.647135,18.958456 -9.203934,8.729204 -14.111973,22.789987 -13.784819,35.4708522 0.439825,17.0481451 7.567603,36.1180408 20.966563,46.6679498 17.8910588,14.086834 44.389862,13.513434 67.142574,12.595127 1.306349,-0.0527 2.667926,-0.3508 3.784179,-1.03147 z"
       inkscape:connector-curvature="0"
       sodipodi:nodetypes="ccccccsssssscc" />
  </g>
</svg>
