<?xml version="1.0" encoding="UTF-8" standalone="no"?>
<!-- Created with Inkscape (http://www.inkscape.org/) -->

<svg
   xmlns:dc="http://purl.org/dc/elements/1.1/"
   xmlns:cc="http://creativecommons.org/ns#"
   xmlns:rdf="http://www.w3.org/1999/02/22-rdf-syntax-ns#"
   xmlns:svg="http://www.w3.org/2000/svg"
   xmlns="http://www.w3.org/2000/svg"
   xmlns:sodipodi="http://sodipodi.sourceforge.net/DTD/sodipodi-0.dtd"
   xmlns:inkscape="http://www.inkscape.org/namespaces/inkscape"
   width="324.56189mm"
   height="400mm"
   viewBox="0 0 324.56189 400"
   version="1.1"
   id="svg8"
   inkscape:version="0.92.5 (2060ec1f9f, 2020-04-08)"
   sodipodi:docname="letter-H.svg">
  <defs
     id="defs2" />
  <sodipodi:namedview
     id="base"
     pagecolor="#ffffff"
     bordercolor="#666666"
     borderopacity="1.0"
     inkscape:pageopacity="0.0"
     inkscape:pageshadow="2"
     inkscape:zoom="0.49497475"
     inkscape:cx="171.4272"
     inkscape:cy="341.91322"
     inkscape:document-units="mm"
     inkscape:current-layer="layer1"
     showgrid="false"
     inkscape:window-width="1920"
     inkscape:window-height="1136"
     inkscape:window-x="0"
     inkscape:window-y="27"
     inkscape:window-maximized="0"
     fit-margin-top="50"
     fit-margin-left="50"
     fit-margin-right="50"
     fit-margin-bottom="50" />
  <metadata
     id="metadata5">
    <rdf:RDF>
      <cc:Work
         rdf:about="">
        <dc:format>image/svg+xml</dc:format>
        <dc:type
           rdf:resource="http://purl.org/dc/dcmitype/StillImage" />
        <dc:title></dc:title>
      </cc:Work>
    </rdf:RDF>
  </metadata>
  <g
     inkscape:label="Layer 1"
     inkscape:groupmode="layer"
     id="layer1"
     transform="translate(65.394331,102.44355)">
    <path
       id="path4599"
       style="opacity:1;vector-effect:none;fill:#000000;fill-opacity:1;stroke:none;stroke-width:0.19213198;stroke-linecap:butt;stroke-linejoin:miter;stroke-miterlimit:4;stroke-dasharray:none;stroke-dashoffset:0;stroke-opacity:1"
       d="m 108.24932,169.70945 c 3.63701,17.41396 5.77699,37.89039 17.20503,38.59882 19.7419,1.22381 34.91214,-24.61015 40.16535,-43.6796 6.60567,-23.979 3.46101,-56.65903 -15.25441,-73.040724 C 138.61958,81.306882 119.0195,85.377229 103.6613,88.167919 36.507515,107.82065 7.552865,150.11894 26.618487,191.98783 c 3.638471,10.37293 14.240166,19.17282 25.171422,20.33197 19.717477,2.09085 45.022051,-32.29088 56.459411,-42.61035 z m -3.3561,20.64361 C 90.596514,203.25239 67.285799,227.35944 42.638953,224.74588 28.974884,223.29694 16.15163,210.58162 11.603542,197.61547 1.7124253,169.41686 6.4583454,130.71982 28.481407,111.43695 61.855017,82.215822 129.82998,50.22013 163.71385,77.690865 c 23.39428,20.477118 27.3251,61.327155 19.068,91.300895 -6.56651,23.83681 -25.5293,56.12926 -50.20667,54.5995 -14.28506,-0.88553 -23.1357,-11.47076 -27.68196,-33.2382 z"
       inkscape:connector-curvature="0"
       sodipodi:nodetypes="cssscccccssscssc" />
    <path
       style="opacity:1;vector-effect:none;fill:#000000;fill-opacity:1;stroke:none;stroke-width:0.29774037;stroke-linecap:butt;stroke-linejoin:miter;stroke-miterlimit:4;stroke-dasharray:none;stroke-dashoffset:0;stroke-opacity:1"
       d="m 154.85228,-74.108064 c 10.83952,20.021649 13.05795,70.9035479 3.79613,104.510443 -2.83048,10.270498 -7.10463,29.727495 -17.35802,26.835628 -12.30257,-3.46982 -11.09868,-26.636855 -0.93341,-38.336226 17.19752,-20.7123461 12.45287,-59.13187 14.4953,-93.009845 z"
       id="path4608"
       inkscape:connector-curvature="0"
       sodipodi:nodetypes="caacc" />
    <path
       sodipodi:nodetypes="caacc"
       inkscape:connector-curvature="0"
       id="path4616"
       d="m 230.34953,-44.053722 c 5.12205,22.183916 -6.2767,71.82218 -24.14588,101.753706 -5.46096,9.147287 -14.75763,26.765865 -23.87209,21.250298 -10.93602,-6.617874 -3.61189,-28.629632 9.29966,-37.202856 22.08825,-15.390418 27.73619,-53.687575 38.71831,-85.801148 z"
       style="opacity:1;vector-effect:none;fill:#000000;fill-opacity:1;stroke:none;stroke-width:0.29774037;stroke-linecap:butt;stroke-linejoin:miter;stroke-miterlimit:4;stroke-dasharray:none;stroke-dashoffset:0;stroke-opacity:1" />
    <path
       sodipodi:nodetypes="caacc"
       inkscape:connector-curvature="0"
       id="path4618"
       d="m 68.994733,-70.170402 c 15.557821,16.622744 30.59324,65.283048 30.14678,100.139976 -0.13644,10.652517 0.65764,30.5576 -9.99387,30.35744 C 76.36737,60.086844 71.663344,37.370487 78.533385,23.477658 89.923138,-0.91556707 75.600845,-36.880044 68.994733,-70.170402 Z"
       style="opacity:1;vector-effect:none;fill:#000000;fill-opacity:1;stroke:none;stroke-width:0.29774037;stroke-linecap:butt;stroke-linejoin:miter;stroke-miterlimit:4;stroke-dasharray:none;stroke-dashoffset:0;stroke-opacity:1" />
    <path
       style="opacity:1;vector-effect:none;fill:#000000;fill-opacity:1;stroke:none;stroke-width:0.29774037;stroke-linecap:butt;stroke-linejoin:miter;stroke-miterlimit:4;stroke-dasharray:none;stroke-dashoffset:0;stroke-opacity:1"
       d="M -8.6893827,-38.775477 C 9.8353534,-25.539331 34.152453,19.210725 40.574081,53.473927 42.536577,63.945001 47.232176,83.304602 36.749556,85.204419 24.171921,87.483929 15.089609,66.137451 19.091399,51.16435 25.458192,25.006754 4.3386384,-7.4360578 -8.6893827,-38.775477 Z"
       id="path4620"
       inkscape:connector-curvature="0"
       sodipodi:nodetypes="caacc" />
  </g>
</svg>
