<?xml version="1.0" encoding="UTF-8" standalone="no"?>
<!-- Created with Inkscape (http://www.inkscape.org/) -->

<svg
   xmlns:dc="http://purl.org/dc/elements/1.1/"
   xmlns:cc="http://creativecommons.org/ns#"
   xmlns:rdf="http://www.w3.org/1999/02/22-rdf-syntax-ns#"
   xmlns:svg="http://www.w3.org/2000/svg"
   xmlns="http://www.w3.org/2000/svg"
   xmlns:sodipodi="http://sodipodi.sourceforge.net/DTD/sodipodi-0.dtd"
   xmlns:inkscape="http://www.inkscape.org/namespaces/inkscape"
   width="324.56189mm"
   height="328.58295mm"
   viewBox="0 0 324.56189 328.58295"
   version="1.1"
   id="svg8"
   inkscape:version="0.92.4 (5da689c313, 2019-01-14)"
   sodipodi:docname="letter-G.svg">
  <defs
     id="defs2" />
  <sodipodi:namedview
     id="base"
     pagecolor="#ffffff"
     bordercolor="#666666"
     borderopacity="1.0"
     inkscape:pageopacity="0.0"
     inkscape:pageshadow="2"
     inkscape:zoom="0.49497475"
     inkscape:cx="539.12272"
     inkscape:cy="341.91322"
     inkscape:document-units="mm"
     inkscape:current-layer="layer1"
     showgrid="false"
     inkscape:window-width="2243"
     inkscape:window-height="1416"
     inkscape:window-x="206"
     inkscape:window-y="176"
     inkscape:window-maximized="0"
     fit-margin-top="50"
     fit-margin-left="50"
     fit-margin-right="50"
     fit-margin-bottom="50" />
  <metadata
     id="metadata5">
    <rdf:RDF>
      <cc:Work
         rdf:about="">
        <dc:format>image/svg+xml</dc:format>
        <dc:type
           rdf:resource="http://purl.org/dc/dcmitype/StillImage" />
        <dc:title></dc:title>
      </cc:Work>
    </rdf:RDF>
  </metadata>
  <g
     inkscape:label="Layer 1"
     inkscape:groupmode="layer"
     id="layer1"
     transform="translate(65.394331,31.026497)">
    <path
       id="path4599"
       style="opacity:1;vector-effect:none;fill:#000000;fill-opacity:1;stroke:none;stroke-width:0.19213198;stroke-linecap:butt;stroke-linejoin:miter;stroke-miterlimit:4;stroke-dasharray:none;stroke-dashoffset:0;stroke-opacity:1"
       d="m 108.24932,222.62615 c 3.63701,17.41396 5.77699,37.89039 17.20503,38.59882 19.7419,1.22381 34.91214,-24.61015 40.16535,-43.6796 6.60567,-23.979 3.46101,-56.65903 -15.25441,-73.04073 -11.74571,-10.28107 -31.34579,-6.21072 -46.70399,-3.42003 -67.153785,19.65274 -96.108435,61.95103 -77.042813,103.81992 3.638471,10.37293 14.240166,19.17282 25.171422,20.33197 19.717477,2.09085 45.022051,-32.29088 56.459411,-42.61035 z m -3.3561,20.64361 C 90.596514,256.16909 67.285799,280.27614 42.638953,277.66258 28.974884,276.21364 16.15163,263.49832 11.603542,250.53217 1.7124253,222.33356 6.4583454,183.63652 28.481407,164.35365 61.855017,135.13251 129.82998,103.1368 163.71385,130.60755 c 23.39428,20.47713 27.3251,61.32717 19.068,91.30091 -6.56651,23.83681 -25.5293,56.12926 -50.20667,54.5995 -14.28506,-0.88553 -23.1357,-11.47076 -27.68196,-33.2382 z"
       inkscape:connector-curvature="0"
       sodipodi:nodetypes="cssscccccssscssc" />
    <path
       style="opacity:1;vector-effect:none;fill:#000000;fill-opacity:1;stroke:none;stroke-width:0.29774037;stroke-linecap:butt;stroke-linejoin:miter;stroke-miterlimit:4;stroke-dasharray:none;stroke-dashoffset:0;stroke-opacity:1"
       d="m 105.53036,-21.713857 c 14.53976,17.5201865 26.64916,66.989889 24.12663,101.758288 -0.77091,10.625463 -1.16423,30.542509 -11.7849,29.708049 -12.74325,-1.00123 -16.08542,-23.957507 -8.39982,-37.416316 12.82293,-23.671258 0.66895,-60.4252 -3.94191,-94.050021 z"
       id="path4608"
       inkscape:connector-curvature="0"
       sodipodi:nodetypes="caacc" />
    <path
       sodipodi:nodetypes="caacc"
       inkscape:connector-curvature="0"
       id="path4616"
       d="m 207.38703,-7.0351668 c 8.21792,21.2326958 3.97769,71.9861138 -9.46369,104.1502778 -4.1078,9.829599 -10.81049,28.589039 -20.61534,24.422529 -11.76439,-4.99921 -7.63763,-27.827489 3.92683,-38.146002 19.68101,-18.368817 19.83781,-57.079888 26.1522,-90.4268048 z"
       style="opacity:1;vector-effect:none;fill:#000000;fill-opacity:1;stroke:none;stroke-width:0.29774037;stroke-linecap:butt;stroke-linejoin:miter;stroke-miterlimit:4;stroke-dasharray:none;stroke-dashoffset:0;stroke-opacity:1" />
    <path
       sodipodi:nodetypes="caacc"
       inkscape:connector-curvature="0"
       id="path4618"
       d="M 11.973488,5.1409303 C 30.33863,18.597637 54.118893,63.635268 60.130364,97.972814 61.967511,108.4666 66.431284,127.88097 55.926692,129.65531 43.3227,131.78426 34.496288,110.33069 38.676832,95.406519 45.355948,69.326922 24.625838,36.633892 11.973488,5.1409303 Z"
       style="opacity:1;vector-effect:none;fill:#000000;fill-opacity:1;stroke:none;stroke-width:0.29774037;stroke-linecap:butt;stroke-linejoin:miter;stroke-miterlimit:4;stroke-dasharray:none;stroke-dashoffset:0;stroke-opacity:1" />
  </g>
</svg>
