<?xml version="1.0" encoding="UTF-8" standalone="no"?>
<!-- Created with Inkscape (http://www.inkscape.org/) -->

<svg
   xmlns:dc="http://purl.org/dc/elements/1.1/"
   xmlns:cc="http://creativecommons.org/ns#"
   xmlns:rdf="http://www.w3.org/1999/02/22-rdf-syntax-ns#"
   xmlns:svg="http://www.w3.org/2000/svg"
   xmlns="http://www.w3.org/2000/svg"
   xmlns:sodipodi="http://sodipodi.sourceforge.net/DTD/sodipodi-0.dtd"
   xmlns:inkscape="http://www.inkscape.org/namespaces/inkscape"
   width="324.56189mm"
   height="328.58295mm"
   viewBox="0 0 324.56189 328.58295"
   version="1.1"
   id="svg8"
   inkscape:version="0.92.4 (5da689c313, 2019-01-14)"
   sodipodi:docname="letter-H.svg">
  <defs
     id="defs2" />
  <sodipodi:namedview
     id="base"
     pagecolor="#ffffff"
     bordercolor="#666666"
     borderopacity="1.0"
     inkscape:pageopacity="0.0"
     inkscape:pageshadow="2"
     inkscape:zoom="0.49497475"
     inkscape:cx="539.12272"
     inkscape:cy="341.91322"
     inkscape:document-units="mm"
     inkscape:current-layer="layer1"
     showgrid="false"
     inkscape:window-width="2243"
     inkscape:window-height="1416"
     inkscape:window-x="206"
     inkscape:window-y="176"
     inkscape:window-maximized="0"
     fit-margin-top="50"
     fit-margin-left="50"
     fit-margin-right="50"
     fit-margin-bottom="50" />
  <metadata
     id="metadata5">
    <rdf:RDF>
      <cc:Work
         rdf:about="">
        <dc:format>image/svg+xml</dc:format>
        <dc:type
           rdf:resource="http://purl.org/dc/dcmitype/StillImage" />
        <dc:title></dc:title>
      </cc:Work>
    </rdf:RDF>
  </metadata>
  <g
     inkscape:label="Layer 1"
     inkscape:groupmode="layer"
     id="layer1"
     transform="translate(65.394331,31.026497)">
    <path
       id="path4599"
       style="opacity:1;vector-effect:none;fill:#000000;fill-opacity:1;stroke:none;stroke-width:0.19213198;stroke-linecap:butt;stroke-linejoin:miter;stroke-miterlimit:4;stroke-dasharray:none;stroke-dashoffset:0;stroke-opacity:1"
       d="m 108.24932,222.62615 c 3.63701,17.41396 5.77699,37.89039 17.20503,38.59882 19.7419,1.22381 34.91214,-24.61015 40.16535,-43.6796 6.60567,-23.979 3.46101,-56.65903 -15.25441,-73.04073 -11.74571,-10.28107 -31.34579,-6.21072 -46.70399,-3.42003 -67.153785,19.65274 -96.108435,61.95103 -77.042813,103.81992 3.638471,10.37293 14.240166,19.17282 25.171422,20.33197 19.717477,2.09085 45.022051,-32.29088 56.459411,-42.61035 z m -3.3561,20.64361 C 90.596514,256.16909 67.285799,280.27614 42.638953,277.66258 28.974884,276.21364 16.15163,263.49832 11.603542,250.53217 1.7124253,222.33356 6.4583454,183.63652 28.481407,164.35365 61.855017,135.13251 129.82998,103.1368 163.71385,130.60755 c 23.39428,20.47713 27.3251,61.32717 19.068,91.30091 -6.56651,23.83681 -25.5293,56.12926 -50.20667,54.5995 -14.28506,-0.88553 -23.1357,-11.47076 -27.68196,-33.2382 z"
       inkscape:connector-curvature="0"
       sodipodi:nodetypes="cssscccccssscssc" />
    <path
       style="opacity:1;vector-effect:none;fill:#000000;fill-opacity:1;stroke:none;stroke-width:0.29774037;stroke-linecap:butt;stroke-linejoin:miter;stroke-miterlimit:4;stroke-dasharray:none;stroke-dashoffset:0;stroke-opacity:1"
       d="m 154.85228,-21.191394 c 10.83952,20.0216483 13.05795,70.903547 3.79613,104.510443 -2.83048,10.270498 -7.10463,29.727501 -17.35802,26.835631 -12.30257,-3.46982 -11.09868,-26.636858 -0.93341,-38.336229 17.19752,-20.712347 12.45287,-59.131872 14.4953,-93.009845 z"
       id="path4608"
       inkscape:connector-curvature="0"
       sodipodi:nodetypes="caacc" />
    <path
       sodipodi:nodetypes="caacc"
       inkscape:connector-curvature="0"
       id="path4616"
       d="m 230.34953,8.8629463 c 5.12205,22.1839157 -6.2767,71.8221817 -24.14588,101.7537137 -5.46096,9.14729 -14.75763,26.76588 -23.87209,21.25031 -10.93602,-6.61788 -3.61189,-28.62965 9.29966,-37.202874 22.08825,-15.390418 27.73619,-53.687577 38.71831,-85.8011497 z"
       style="opacity:1;vector-effect:none;fill:#000000;fill-opacity:1;stroke:none;stroke-width:0.29774037;stroke-linecap:butt;stroke-linejoin:miter;stroke-miterlimit:4;stroke-dasharray:none;stroke-dashoffset:0;stroke-opacity:1" />
    <path
       sodipodi:nodetypes="caacc"
       inkscape:connector-curvature="0"
       id="path4618"
       d="m 68.994733,-17.253732 c 15.557821,16.62274358 30.59324,65.283047 30.14678,100.139976 -0.13644,10.652517 0.65764,30.557606 -9.99387,30.357446 C 76.36737,113.00352 71.663344,90.287157 78.533385,76.394328 89.923138,52.001102 75.600845,16.036625 68.994733,-17.253732 Z"
       style="opacity:1;vector-effect:none;fill:#000000;fill-opacity:1;stroke:none;stroke-width:0.29774037;stroke-linecap:butt;stroke-linejoin:miter;stroke-miterlimit:4;stroke-dasharray:none;stroke-dashoffset:0;stroke-opacity:1" />
    <path
       style="opacity:1;vector-effect:none;fill:#000000;fill-opacity:1;stroke:none;stroke-width:0.29774037;stroke-linecap:butt;stroke-linejoin:miter;stroke-miterlimit:4;stroke-dasharray:none;stroke-dashoffset:0;stroke-opacity:1"
       d="M -8.6893827,14.141191 C 9.8353534,27.377337 34.152453,72.127395 40.574081,106.3906 c 1.962496,10.47108 6.658095,29.83069 -3.824525,31.73051 C 24.171921,140.40062 15.089609,119.05413 19.091399,104.08102 25.458192,77.923424 4.3386384,45.480611 -8.6893827,14.141191 Z"
       id="path4620"
       inkscape:connector-curvature="0"
       sodipodi:nodetypes="caacc" />
  </g>
</svg>
