<?xml version="1.0" encoding="UTF-8" standalone="no"?>
<!-- Created with Inkscape (http://www.inkscape.org/) -->

<svg
   xmlns:dc="http://purl.org/dc/elements/1.1/"
   xmlns:cc="http://creativecommons.org/ns#"
   xmlns:rdf="http://www.w3.org/1999/02/22-rdf-syntax-ns#"
   xmlns:svg="http://www.w3.org/2000/svg"
   xmlns="http://www.w3.org/2000/svg"
   xmlns:sodipodi="http://sodipodi.sourceforge.net/DTD/sodipodi-0.dtd"
   xmlns:inkscape="http://www.inkscape.org/namespaces/inkscape"
   width="324.56189mm"
   height="400mm"
   viewBox="0 0 324.56189 400"
   version="1.1"
   id="svg8"
   inkscape:version="0.92.5 (2060ec1f9f, 2020-04-08)"
   sodipodi:docname="letter-N.svg">
  <defs
     id="defs2" />
  <sodipodi:namedview
     id="base"
     pagecolor="#ffffff"
     bordercolor="#666666"
     borderopacity="1.0"
     inkscape:pageopacity="0.0"
     inkscape:pageshadow="2"
     inkscape:zoom="0.7"
     inkscape:cx="127.38531"
     inkscape:cy="605.94765"
     inkscape:document-units="mm"
     inkscape:current-layer="layer1"
     showgrid="false"
     inkscape:window-width="1920"
     inkscape:window-height="1136"
     inkscape:window-x="0"
     inkscape:window-y="27"
     inkscape:window-maximized="0"
     fit-margin-top="50"
     fit-margin-left="50"
     fit-margin-right="50"
     fit-margin-bottom="50" />
  <metadata
     id="metadata5">
    <rdf:RDF>
      <cc:Work
         rdf:about="">
        <dc:format>image/svg+xml</dc:format>
        <dc:type
           rdf:resource="http://purl.org/dc/dcmitype/StillImage" />
        <dc:title></dc:title>
      </cc:Work>
    </rdf:RDF>
  </metadata>
  <g
     inkscape:label="Layer 1"
     inkscape:groupmode="layer"
     id="layer1"
     transform="translate(65.394331,102.44355)">
    <path
       id="path828"
       style="opacity:1;vector-effect:none;fill:#000000;fill-opacity:1;stroke:none;stroke-width:0.21166666;stroke-linecap:butt;stroke-linejoin:miter;stroke-miterlimit:4;stroke-dasharray:none;stroke-dashoffset:0;stroke-opacity:1"
       d="M 90.541989,98.894253 C 75.772289,129.79566 29.504039,222.84732 8.1807186,189.24633 -4.2150314,157.95282 -31.656981,33.41834 -21.970571,-26.792523 c 1.72923,-10.748881 57.35939,52.124063 130.441711,50.532469 34.28471,-0.746656 49.90877,-36.975194 74.83018,-53.714073 12.61174,-8.470885 56.07785,0.622302 45.90613,11.175572 -32.59284,33.815406 -62.95221,130.228535 -44.12493,179.814755 -2.32683,67.49605 -82.25283,22.21959 -94.540531,-62.121947 z m -0.96609,29.328837 c 9.09918,80.8108 102.279871,111.00703 109.671221,35.13011 -35.72607,-124.699962 70.56675,-179.763706 36.71099,-200.477978 -4.771,-2.919083 -25.29165,-11.083549 -35.81921,-12.463057 C 167.58959,-53.853021 148.71569,8.6626133 111.9616,11.165998 62.568949,14.530218 0.73863857,-26.465949 -14.212111,-41.547583 -68.374631,-96.184292 -22.825881,166.78453 -1.5639314,207.14534 25.090219,249.14658 71.113789,166.84985 89.575899,128.22309 Z"
       inkscape:connector-curvature="0"
       sodipodi:nodetypes="ccssssccccsssscc" />
  </g>
</svg>
