<?xml version="1.0" encoding="UTF-8" standalone="no"?>
<!-- Created with Inkscape (http://www.inkscape.org/) -->

<svg
   xmlns:dc="http://purl.org/dc/elements/1.1/"
   xmlns:cc="http://creativecommons.org/ns#"
   xmlns:rdf="http://www.w3.org/1999/02/22-rdf-syntax-ns#"
   xmlns:svg="http://www.w3.org/2000/svg"
   xmlns="http://www.w3.org/2000/svg"
   xmlns:sodipodi="http://sodipodi.sourceforge.net/DTD/sodipodi-0.dtd"
   xmlns:inkscape="http://www.inkscape.org/namespaces/inkscape"
   width="324.56189mm"
   height="328.58295mm"
   viewBox="0 0 324.56189 328.58295"
   version="1.1"
   id="svg8"
   inkscape:version="0.92.5 (2060ec1f9f, 2020-04-08)"
   sodipodi:docname="import-me.svg">
  <defs
     id="defs2" />
  <sodipodi:namedview
     id="base"
     pagecolor="#ffffff"
     bordercolor="#666666"
     borderopacity="1.0"
     inkscape:pageopacity="0.0"
     inkscape:pageshadow="2"
     inkscape:zoom="0.35"
     inkscape:cx="634.18534"
     inkscape:cy="628.68914"
     inkscape:document-units="mm"
     inkscape:current-layer="layer1"
     showgrid="false"
     inkscape:window-width="1553"
     inkscape:window-height="938"
     inkscape:window-x="0"
     inkscape:window-y="249"
     inkscape:window-maximized="0"
     fit-margin-top="50"
     fit-margin-left="50"
     fit-margin-right="50"
     fit-margin-bottom="50" />
  <metadata
     id="metadata5">
    <rdf:RDF>
      <cc:Work
         rdf:about="">
        <dc:format>image/svg+xml</dc:format>
        <dc:type
           rdf:resource="http://purl.org/dc/dcmitype/StillImage" />
        <dc:title></dc:title>
      </cc:Work>
    </rdf:RDF>
  </metadata>
  <g
     inkscape:label="Layer 1"
     inkscape:groupmode="layer"
     id="layer1"
     transform="translate(65.394331,31.026497)">
    <path
       id="path842"
       style="opacity:1;vector-effect:none;fill:#000000;fill-opacity:1;stroke:none;stroke-width:1.0583334;stroke-linecap:butt;stroke-linejoin:miter;stroke-miterlimit:4;stroke-dasharray:none;stroke-dashoffset:0;stroke-opacity:1"
       d="m 29.682397,164.87782 c 23.147,24.35202 46.186772,61.28035 52.402932,89.71347 6.21616,-28.43312 37.004451,-65.64492 60.151451,-89.99695 23.51138,-24.7354 54.70835,-45.635 65.58168,-77.550752 C 221.09418,48.076226 203.18353,28.322123 180.51528,21.063521 150.38733,11.416248 110.65103,35.347403 100.0392,71.367338 89.427384,35.347403 51.834017,17.122871 21.547499,22.669918 c -22.9889996,4.21049 -42.270812,30.48242 -42.611204,55.68022 -0.423293,31.334482 27.2347219,61.792282 50.746102,86.527682 z m -13.257798,1.472 C -12.964625,135.43057 -43.414628,113.34644 -43.464503,77.679638 -43.508558,46.179546 -20.637458,11.534938 9.2089144,-0.77946431 42.414849,-14.479999 87.562304,10.933276 100.82708,55.958188 c 13.26478,-45.024912 62.9289,-74.919297 100.5951,-62.8797648 28.75828,9.1922275 39.50245,53.8458778 34.71955,83.6562648 -6.67675,41.614182 -53.17845,64.838002 -82.56767,95.757252 -28.93375,30.44005 -63.875596,68.09598 -71.645796,103.63738 -7.7702,-35.5414 -36.569915,-79.33945 -65.503665,-109.7795 z"
       inkscape:connector-curvature="0"
       sodipodi:nodetypes="scssacassssscssscs" />
  </g>
</svg>
