<?xml version="1.0" encoding="UTF-8" standalone="no"?>
<!-- Created with Inkscape (http://www.inkscape.org/) -->

<svg
   xmlns:dc="http://purl.org/dc/elements/1.1/"
   xmlns:cc="http://creativecommons.org/ns#"
   xmlns:rdf="http://www.w3.org/1999/02/22-rdf-syntax-ns#"
   xmlns:svg="http://www.w3.org/2000/svg"
   xmlns="http://www.w3.org/2000/svg"
   xmlns:sodipodi="http://sodipodi.sourceforge.net/DTD/sodipodi-0.dtd"
   xmlns:inkscape="http://www.inkscape.org/namespaces/inkscape"
   width="324.56189mm"
   height="400mm"
   viewBox="0 0 324.56189 400"
   version="1.1"
   id="svg8"
   inkscape:version="0.92.5 (2060ec1f9f, 2020-04-08)"
   sodipodi:docname="letter-Z.svg">
  <defs
     id="defs2" />
  <sodipodi:namedview
     id="base"
     pagecolor="#ffffff"
     bordercolor="#666666"
     borderopacity="1.0"
     inkscape:pageopacity="0.0"
     inkscape:pageshadow="2"
     inkscape:zoom="0.98994949"
     inkscape:cx="224.99865"
     inkscape:cy="1353.3592"
     inkscape:document-units="mm"
     inkscape:current-layer="layer1"
     showgrid="false"
     inkscape:window-width="1920"
     inkscape:window-height="1136"
     inkscape:window-x="0"
     inkscape:window-y="27"
     inkscape:window-maximized="0"
     fit-margin-top="50"
     fit-margin-left="50"
     fit-margin-right="50"
     fit-margin-bottom="50" />
  <metadata
     id="metadata5">
    <rdf:RDF>
      <cc:Work
         rdf:about="">
        <dc:format>image/svg+xml</dc:format>
        <dc:type
           rdf:resource="http://purl.org/dc/dcmitype/StillImage" />
        <dc:title></dc:title>
      </cc:Work>
    </rdf:RDF>
  </metadata>
  <g
     inkscape:label="Layer 1"
     inkscape:groupmode="layer"
     id="layer1"
     transform="translate(65.394331,102.44355)">
    <path
       id="path842"
       style="opacity:1;vector-effect:none;fill:#000000;fill-opacity:1;stroke:none;stroke-width:1.0583334;stroke-linecap:butt;stroke-linejoin:miter;stroke-miterlimit:4;stroke-dasharray:none;stroke-dashoffset:0;stroke-opacity:1"
       d="m 29.682397,111.96112 c 23.147,24.35202 46.186772,61.28035 52.402932,89.71347 6.21616,-28.43312 37.004451,-65.64492 60.151451,-89.99695 23.51138,-24.735391 54.70835,-45.634979 65.58168,-77.550722 13.27572,-38.967361 -4.63493,-58.721463 -27.30318,-65.980066 C 150.38733,-41.50042 110.65103,-17.569265 100.0392,18.450668 89.427384,-17.569265 51.834017,-35.793797 21.547499,-30.24675 -1.4415006,-26.036261 -20.723313,0.23566863 -21.063705,25.433468 -21.486998,56.767947 6.1710169,87.225729 29.682397,111.96112 Z m -13.257798,1.472 C -12.964625,82.513882 -43.414628,60.429764 -43.464503,24.762968 -43.508558,-6.7371228 -20.637458,-41.38173 9.2089144,-53.696134 42.414849,-67.396669 87.562304,-41.983393 100.82708,3.0415186 c 13.26478,-45.0249116 62.9289,-74.9192976 100.5951,-62.8797646 28.75828,9.192228 39.50245,53.8458783 34.71955,83.656264 -6.67675,41.614173 -53.17845,64.837981 -82.56767,95.757222 -28.93375,30.44005 -63.875596,68.09598 -71.645796,103.63738 -7.7702,-35.5414 -36.569915,-79.33945 -65.503665,-109.7795 z"
       inkscape:connector-curvature="0"
       sodipodi:nodetypes="scssacassssscssscs" />
    <path
       id="path824"
       style="opacity:1;vector-effect:none;fill:#000000;fill-opacity:1;stroke:none;stroke-width:0.26458332;stroke-linecap:butt;stroke-linejoin:miter;stroke-miterlimit:4;stroke-dasharray:none;stroke-dashoffset:0;stroke-opacity:1"
       d="M 33.522516,73.679815 C 52.957871,63.204211 106.91276,59.656314 170.17217,74.232755 171.67874,34.293246 147.55594,7.3622223 100.0392,18.450666 147.50523,22.383428 149.52244,40.361901 154.136,56.860247 110.57727,38.427774 46.850302,46.729193 8.3991795,70.739848 78.145164,116.27651 84.326106,127.7801 81.069367,212.56736 82.07677,202.51081 84.989968,211.65824 85.598403,203.34614 91.746962,119.34802 81.032931,96.844933 33.522516,73.679815 Z"
       inkscape:connector-curvature="0"
       sodipodi:nodetypes="ccccccsc" />
  </g>
</svg>
