<?xml version="1.0" encoding="UTF-8" standalone="no"?>
<!-- Created with Inkscape (http://www.inkscape.org/) -->

<svg
   xmlns:dc="http://purl.org/dc/elements/1.1/"
   xmlns:cc="http://creativecommons.org/ns#"
   xmlns:rdf="http://www.w3.org/1999/02/22-rdf-syntax-ns#"
   xmlns:svg="http://www.w3.org/2000/svg"
   xmlns="http://www.w3.org/2000/svg"
   xmlns:sodipodi="http://sodipodi.sourceforge.net/DTD/sodipodi-0.dtd"
   xmlns:inkscape="http://www.inkscape.org/namespaces/inkscape"
   width="324.56189mm"
   height="328.58295mm"
   viewBox="0 0 324.56189 328.58295"
   version="1.1"
   id="svg8"
   inkscape:version="0.92.4 (5da689c313, 2019-01-14)"
   sodipodi:docname="letter-K.svg">
  <defs
     id="defs2" />
  <sodipodi:namedview
     id="base"
     pagecolor="#ffffff"
     bordercolor="#666666"
     borderopacity="1.0"
     inkscape:pageopacity="0.0"
     inkscape:pageshadow="2"
     inkscape:zoom="0.7"
     inkscape:cx="252.82947"
     inkscape:cy="612.36375"
     inkscape:document-units="mm"
     inkscape:current-layer="layer1"
     showgrid="false"
     inkscape:window-width="2243"
     inkscape:window-height="1416"
     inkscape:window-x="206"
     inkscape:window-y="176"
     inkscape:window-maximized="0"
     fit-margin-top="50"
     fit-margin-left="50"
     fit-margin-right="50"
     fit-margin-bottom="50" />
  <metadata
     id="metadata5">
    <rdf:RDF>
      <cc:Work
         rdf:about="">
        <dc:format>image/svg+xml</dc:format>
        <dc:type
           rdf:resource="http://purl.org/dc/dcmitype/StillImage" />
        <dc:title></dc:title>
      </cc:Work>
    </rdf:RDF>
  </metadata>
  <g
     inkscape:label="Layer 1"
     inkscape:groupmode="layer"
     id="layer1"
     transform="translate(65.394331,31.026497)">
    <ellipse
       style="opacity:1;vector-effect:none;fill:#000000;fill-opacity:1;fill-rule:evenodd;stroke:none;stroke-width:0.11903508;stroke-linecap:butt;stroke-linejoin:miter;stroke-miterlimit:4;stroke-dasharray:none;stroke-dashoffset:0;stroke-opacity:1"
       id="ellipse850"
       cx="149.35193"
       cy="77.453682"
       rx="3.5471859"
       ry="10.641558"
       transform="rotate(-6.4285895)" />
    <path
       id="path860"
       style="opacity:1;vector-effect:none;fill:#000000;fill-opacity:1;stroke:none;stroke-width:0.21166666;stroke-linecap:butt;stroke-linejoin:miter;stroke-miterlimit:4;stroke-dasharray:none;stroke-dashoffset:0;stroke-opacity:1"
       d="m 170.20236,56.649571 c 18.29977,8.700508 30.5627,0.586157 51.46231,6.187095 -48.53164,6.726603 -45.91009,13.949501 -48.86279,25.620165 -5.19067,20.516319 40.67276,37.952799 45.06036,63.546489 3.87769,22.6193 -2.0214,50.60859 -18.84366,66.21887 -16.61838,15.42109 -47.52005,15.01322 -66.62322,13.68108 C 83.939072,222.53864 43.705804,165.25778 12.575832,139.01504 -14.515944,123.016 -44.895758,103.50899 -41.313111,98.907308 c 13.11278,-12.812289 48.2428833,6.908622 72.546436,8.071462 22.992919,1.10013 48.941949,-3.24371 63.723972,-20.911193 8.255133,-21.478503 26.179333,-42.501569 44.386323,-44.577916 10.94676,-1.24838 24.60115,4.72684 30.85874,15.15991 z m 5.93009,-8.179432 C 168.31047,35.428801 153.60483,27.014835 139.92138,28.57531 117.16264,31.170743 99.00962,47.527701 88.690703,74.37583 70.213174,96.460187 44.231767,101.71356 18.485143,98.624946 -1.5158679,98.353191 -33.128356,72.520252 -49.519331,88.535614 c -6.32532,6.180369 -3.521488,20.990566 3.284181,26.326296 13.465198,5.65013 25.748423,15.18842 37.1461942,24.75331 35.8985728,29.71224 61.3553748,66.37568 99.4917438,89.52866 11.993492,7.28137 25.603482,12.30402 39.415852,14.76988 23.87896,1.66517 61.1601,3.07811 82.80655,-14.739 17.44994,-22.53813 27.01204,-52.99339 21.19223,-79.93878 -5.58478,-25.85721 -56.7648,-35.85758 -50.18334,-61.479236 6.05323,-23.565265 51.44072,-17.474841 67.69307,-27.300506 -26.12451,-7.001172 -52.31998,-1.110465 -75.1947,-11.986099 z"
       inkscape:connector-curvature="0"
       sodipodi:nodetypes="ccsaacccscsccsccsccsccsscc" />
  </g>
</svg>
