<?xml version="1.0" encoding="UTF-8" standalone="no"?>
<!-- Created with Inkscape (http://www.inkscape.org/) -->

<svg
   xmlns:dc="http://purl.org/dc/elements/1.1/"
   xmlns:cc="http://creativecommons.org/ns#"
   xmlns:rdf="http://www.w3.org/1999/02/22-rdf-syntax-ns#"
   xmlns:svg="http://www.w3.org/2000/svg"
   xmlns="http://www.w3.org/2000/svg"
   xmlns:sodipodi="http://sodipodi.sourceforge.net/DTD/sodipodi-0.dtd"
   xmlns:inkscape="http://www.inkscape.org/namespaces/inkscape"
   width="324.56189mm"
   height="400mm"
   viewBox="0 0 324.56189 400"
   version="1.1"
   id="svg8"
   inkscape:version="0.92.5 (2060ec1f9f, 2020-04-08)"
   sodipodi:docname="letter-W.svg">
  <defs
     id="defs2" />
  <sodipodi:namedview
     id="base"
     pagecolor="#ffffff"
     bordercolor="#666666"
     borderopacity="1.0"
     inkscape:pageopacity="0.0"
     inkscape:pageshadow="2"
     inkscape:zoom="0.7"
     inkscape:cx="286.88526"
     inkscape:cy="1729.8962"
     inkscape:document-units="mm"
     inkscape:current-layer="layer1"
     showgrid="false"
     inkscape:window-width="1920"
     inkscape:window-height="1136"
     inkscape:window-x="0"
     inkscape:window-y="27"
     inkscape:window-maximized="0"
     fit-margin-top="50"
     fit-margin-left="50"
     fit-margin-right="50"
     fit-margin-bottom="50"
     inkscape:snap-nodes="false" />
  <metadata
     id="metadata5">
    <rdf:RDF>
      <cc:Work
         rdf:about="">
        <dc:format>image/svg+xml</dc:format>
        <dc:type
           rdf:resource="http://purl.org/dc/dcmitype/StillImage" />
        <dc:title></dc:title>
      </cc:Work>
    </rdf:RDF>
  </metadata>
  <g
     inkscape:label="Layer 1"
     inkscape:groupmode="layer"
     id="layer1"
     transform="translate(65.394331,102.44355)">
    <ellipse
       style="opacity:1;vector-effect:none;fill:#000000;fill-opacity:1;fill-rule:evenodd;stroke:none;stroke-width:0.26458332;stroke-linecap:butt;stroke-linejoin:miter;stroke-miterlimit:4;stroke-dasharray:none;stroke-dashoffset:0;stroke-opacity:1"
       id="path4554"
       cx="81.406738"
       cy="77.760612"
       rx="7.8844509"
       ry="23.653353"
       transform="rotate(6.6190534)" />
    <ellipse
       transform="rotate(6.6190534)"
       ry="23.653353"
       rx="7.8844509"
       cy="72.971863"
       cx="143.54274"
       id="ellipse4556"
       style="opacity:1;vector-effect:none;fill:#000000;fill-opacity:1;fill-rule:evenodd;stroke:none;stroke-width:0.26458332;stroke-linecap:butt;stroke-linejoin:miter;stroke-miterlimit:4;stroke-dasharray:none;stroke-dashoffset:0;stroke-opacity:1" />
    <path
       id="path4567"
       style="opacity:1;vector-effect:none;fill:#000000;fill-opacity:1;stroke:none;stroke-width:0.22407092;stroke-linecap:butt;stroke-linejoin:miter;stroke-miterlimit:4;stroke-dasharray:none;stroke-dashoffset:0;stroke-opacity:1"
       d="m 41.765391,160.22632 c 10.503008,-11.30849 22.409826,-31.21319 61.605259,-30.2306 15.71383,0.39393 30.54623,7.61752 39.51391,24.3487 l 1.2449,-12.56219 c -8.96768,-16.73119 -26.24464,-21.99854 -42.23005,-22.87746 -18.193242,-1.00031 -36.616124,8.96289 -50.627495,20.6109 z"
       inkscape:connector-curvature="0"
       sodipodi:nodetypes="csccscc" />
    <path
       id="path825"
       style="opacity:1;vector-effect:none;fill:#000000;fill-opacity:1;stroke:none;stroke-width:0.21166666;stroke-linecap:butt;stroke-linejoin:miter;stroke-miterlimit:4;stroke-dasharray:none;stroke-dashoffset:0;stroke-opacity:1"
       d="M 49.435905,49.1294 C 78.420681,24.003102 135.84119,19.179514 164.43109,44.754221 c 23.08055,20.64639 25.73243,68.152609 6.79356,92.653739 C 141.65561,175.66129 62.766958,197.7606 28.559909,163.59156 1.1206295,136.18277 20.130761,74.533405 49.435905,49.1294 Z M 54.623654,27.841322 C 14.49732,58.225994 -19.021638,136.65107 15.165182,173.59173 55.025162,216.66254 153.70054,188.37115 188.15072,140.86223 210.21259,110.43756 201.75054,54.003557 173.6452,29.054082 143.97374,2.7143436 86.254341,3.8897676 54.623654,27.841322 Z"
       inkscape:connector-curvature="0"
       sodipodi:nodetypes="aaaaasssss" />
    <path
       id="path856"
       style="opacity:1;vector-effect:none;fill:#000000;fill-opacity:1;stroke:none;stroke-width:0.18294008;stroke-linecap:butt;stroke-linejoin:miter;stroke-miterlimit:4;stroke-dasharray:none;stroke-dashoffset:0;stroke-opacity:1"
       d="m 69.036699,-3.9084501 c -8.360213,-7.4014549 -9.58741,-18.3868639 -6.730102,-28.6543149 7.625655,-22.882682 36.602334,-29.81105 60.510773,-26.433113 91.36729,16.410988 -3.74396,87.804549 -53.780671,55.0874279 z M 123.41209,15.643781 c 14.43136,-4.661785 29.40017,-11.9826454 37.74913,-22.2428398 10.2391,-12.5830252 16.79395,-29.6622902 10.37387,-42.3633372 -6.13005,-12.127287 -24.49999,-19.363313 -41.45146,-21.959376 -19.18486,-2.9381 -42.62474,-0.506661 -60.043024,8.472632 -10.922997,5.630911 -18.95234,15.69043 -21.609018,25.236933 -3.571635,12.834314 -1.166751,27.8526562 9.283517,37.10447563 C 71.6689,12.245829 97.360831,14.459219 119.52056,16.040131 c 1.2723,0.0908 2.65539,0.003 3.89153,-0.39635 z"
       inkscape:connector-curvature="0"
       sodipodi:nodetypes="cccccsssssscc" />
    <path
       id="path828"
       style="opacity:1;vector-effect:none;fill:#000000;fill-opacity:1;stroke:none;stroke-width:0.19049999;stroke-linecap:butt;stroke-linejoin:miter;stroke-miterlimit:4;stroke-dasharray:none;stroke-dashoffset:0;stroke-opacity:1"
       d="M 77.59167,14.706183 C 7.4731597,-12.592535 -20.112791,122.09863 -38.652303,117.48944 -69.99219,100.2442 -37.426513,32.53204 -10.769677,10.570954 8.8083987,-5.558333 49.987304,-8.0242098 77.59167,14.706183 Z m 22.77808,5.299018 C 71.313619,-11.342045 18.602149,-21.30351 -13.756894,-0.19774437 -51.208849,24.229807 -85.333795,109.59489 -45.603395,130.10951 -24.393068,141.06137 -13.164542,102.69151 1.2703673,75.968585 43.845766,6.0905093 55.093933,32.090037 100.36975,20.005201 Z"
       inkscape:connector-curvature="0"
       sodipodi:nodetypes="ccsccsscc" />
    <path
       sodipodi:nodetypes="ccsccsscc"
       inkscape:connector-curvature="0"
       d="M 140.5582,17.264276 C 215.68078,12.97199 200.29012,149.5949 219.34651,150.94097 254.48182,144.22551 244.43674,69.763728 225.87191,40.639471 212.23699,19.249187 173.83603,4.1777236 140.5582,17.264276 Z M 117.25755,15.264344 C 154.5791,-5.568565 207.78872,1.2480496 232.04094,31.321135 260.11017,66.127341 266.18257,157.85976 222.0571,165.09146 198.50044,168.95216 199.67976,128.99049 194.2102,99.114653 175.31478,19.49951 156.58213,40.750027 117.25755,15.264344 Z"
       style="opacity:1;vector-effect:none;fill:#000000;fill-opacity:1;stroke:none;stroke-width:0.19049999;stroke-linecap:butt;stroke-linejoin:miter;stroke-miterlimit:4;stroke-dasharray:none;stroke-dashoffset:0;stroke-opacity:1"
       id="path831" />
  </g>
</svg>
