<?xml version="1.0" encoding="UTF-8" standalone="no"?>
<!-- Created with Inkscape (http://www.inkscape.org/) -->

<svg
   xmlns:dc="http://purl.org/dc/elements/1.1/"
   xmlns:cc="http://creativecommons.org/ns#"
   xmlns:rdf="http://www.w3.org/1999/02/22-rdf-syntax-ns#"
   xmlns:svg="http://www.w3.org/2000/svg"
   xmlns="http://www.w3.org/2000/svg"
   xmlns:sodipodi="http://sodipodi.sourceforge.net/DTD/sodipodi-0.dtd"
   xmlns:inkscape="http://www.inkscape.org/namespaces/inkscape"
   width="324.56189mm"
   height="328.58295mm"
   viewBox="0 0 324.56189 328.58295"
   version="1.1"
   id="svg8"
   inkscape:version="0.92.4 (5da689c313, 2019-01-14)"
   sodipodi:docname="letter-E.svg">
  <defs
     id="defs2" />
  <sodipodi:namedview
     id="base"
     pagecolor="#ffffff"
     bordercolor="#666666"
     borderopacity="1.0"
     inkscape:pageopacity="0.0"
     inkscape:pageshadow="2"
     inkscape:zoom="0.35"
     inkscape:cx="2031.0506"
     inkscape:cy="783.9627"
     inkscape:document-units="mm"
     inkscape:current-layer="layer1"
     showgrid="false"
     inkscape:window-width="2243"
     inkscape:window-height="1416"
     inkscape:window-x="206"
     inkscape:window-y="176"
     inkscape:window-maximized="0"
     fit-margin-top="50"
     fit-margin-left="50"
     fit-margin-right="50"
     fit-margin-bottom="50" />
  <metadata
     id="metadata5">
    <rdf:RDF>
      <cc:Work
         rdf:about="">
        <dc:format>image/svg+xml</dc:format>
        <dc:type
           rdf:resource="http://purl.org/dc/dcmitype/StillImage" />
        <dc:title></dc:title>
      </cc:Work>
    </rdf:RDF>
  </metadata>
  <g
     inkscape:label="Layer 1"
     inkscape:groupmode="layer"
     id="layer1"
     transform="translate(65.394331,31.026497)">
    <path
       id="path4599"
       style="opacity:1;vector-effect:none;fill:#000000;fill-opacity:1;stroke:none;stroke-width:0.19213198;stroke-linecap:butt;stroke-linejoin:miter;stroke-miterlimit:4;stroke-dasharray:none;stroke-dashoffset:0;stroke-opacity:1"
       d="m 108.24932,222.62615 c 3.63701,17.41396 5.77699,37.89039 17.20503,38.59882 19.7419,1.22381 34.91214,-24.61015 40.16535,-43.6796 6.60567,-23.979 3.46101,-56.65903 -15.25441,-73.04073 -11.74571,-10.28107 -31.34579,-6.21072 -46.70399,-3.42003 -67.153785,19.65274 -96.108435,61.95103 -77.042813,103.81992 3.638471,10.37293 14.240166,19.17282 25.171422,20.33197 19.717477,2.09085 45.022051,-32.29088 56.459411,-42.61035 z m -3.3561,20.64361 C 90.596514,256.16909 67.285799,280.27614 42.638953,277.66258 28.974884,276.21364 16.15163,263.49832 11.603542,250.53217 1.7124253,222.33356 6.4583454,183.63652 28.481407,164.35365 61.855017,135.13251 129.82998,103.1368 163.71385,130.60755 c 23.39428,20.47713 27.3251,61.32717 19.068,91.30091 -6.56651,23.83681 -25.5293,56.12926 -50.20667,54.5995 -14.28506,-0.88553 -23.1357,-11.47076 -27.68196,-33.2382 z"
       inkscape:connector-curvature="0"
       sodipodi:nodetypes="cssscccccssscssc" />
    <path
       id="path4675"
       style="opacity:1;vector-effect:none;fill:#000000;fill-opacity:1;stroke:none;stroke-width:0.15875;stroke-linecap:butt;stroke-linejoin:miter;stroke-miterlimit:4;stroke-dasharray:none;stroke-dashoffset:0;stroke-opacity:1"
       d="m 205.10421,51.46405 c -8.90601,-0.620163 -16.29561,9.077115 -20.93494,16.704594 -3.64307,5.989569 -6.90343,14.210466 -4.08731,20.630463 4.34418,13.877663 21.61248,11.441353 29.37837,1.666758 6.52445,-7.25614 8.08872,-19.430122 5.31914,-28.786906 -1.33109,-4.497017 -4.99672,-9.889108 -9.67526,-10.214909 z m 2.82745,-12.336394 c 7.60116,1.821981 13.90693,9.529802 16.12544,17.024838 4.61594,15.594645 2.00883,35.884633 -8.86523,47.978196 -6.94827,7.72751 -19.82328,11.47936 -29.88471,8.87925 -8.13877,-2.10325 -15.23962,-9.94741 -17.66744,-17.995343 -2.74962,-9.114666 1.00892,-19.598893 5.40037,-28.045957 5.02949,-9.67431 13.57135,-17.611615 22.73878,-23.514684 3.61529,-2.327951 7.97126,-5.328603 12.15279,-4.3263 z"
       inkscape:connector-curvature="0"
       sodipodi:nodetypes="aaccaaaaaaaaaa" />
    <path
       sodipodi:nodetypes="aaccaaaaaaaaaa"
       inkscape:connector-curvature="0"
       d="m 104.97119,34.616102 c -8.279247,3.33999 -10.679718,15.293282 -11.513098,24.181887 -0.654401,6.979872 0.01183,15.798558 5.353573,20.338667 9.979465,10.576933 24.440055,0.82905 27.145015,-11.358436 2.69091,-9.379716 -1.23038,-21.010551 -7.81555,-28.211634 -3.16491,-3.460963 -8.82065,-6.705047 -13.16994,-4.950484 z m -2.85659,-12.32968 c 7.63197,-1.688326 16.67505,2.48252 21.94993,8.250788 10.97525,12.001828 17.51075,31.386559 13.02592,47.01941 -2.86568,9.989031 -12.8003,18.997104 -22.98496,21.062484 -8.23843,1.670696 -18.056079,-2.274784 -23.761139,-8.448583 -6.461252,-6.992122 -7.670059,-18.063906 -7.418242,-27.58096 0.288424,-10.899766 4.495177,-21.774847 10.154673,-31.094619 2.231889,-3.675369 4.835369,-8.279749 9.033818,-9.20852 z"
       style="opacity:1;vector-effect:none;fill:#000000;fill-opacity:1;stroke:none;stroke-width:0.15875;stroke-linecap:butt;stroke-linejoin:miter;stroke-miterlimit:4;stroke-dasharray:none;stroke-dashoffset:0;stroke-opacity:1"
       id="path4681" />
    <path
       id="path4683"
       style="opacity:1;vector-effect:none;fill:#000000;fill-opacity:1;stroke:none;stroke-width:0.15875;stroke-linecap:butt;stroke-linejoin:miter;stroke-miterlimit:4;stroke-dasharray:none;stroke-dashoffset:0;stroke-opacity:1"
       d="M 6.7966703,60.155475 C -0.08051237,65.848098 1.2555255,77.966614 3.1558714,86.689603 4.6481592,93.539416 7.9563563,101.74119 14.423046,104.44835 27.139257,111.50238 37.96441,97.829556 36.84755,85.395558 36.56844,75.641476 29.305871,65.746636 20.847613,60.880642 16.782455,58.541955 10.409424,57.165017 6.7966703,60.155475 Z M 0.33685653,49.271915 C 7.0978943,45.349462 16.979818,46.582706 23.755104,50.480506 37.852172,58.590529 49.95648,75.081927 50.421673,91.33872 c 0.297252,10.38771 -6.439158,21.98352 -15.518477,27.03911 -7.344325,4.08951 -17.89605,3.30583 -25.2041977,-0.84801 C 1.4221685,112.82539 -3.0860886,102.64103 -5.7311444,93.495456 -8.7604761,83.021143 -8.0483704,71.38254 -5.4803969,60.785671 c 1.0127075,-4.179006 2.0978942,-9.35595 5.81725343,-11.513756 z"
       inkscape:connector-curvature="0"
       sodipodi:nodetypes="aaccaaaaaaaaaa" />
  </g>
</svg>
