<?xml version="1.0" encoding="UTF-8" standalone="no"?>
<!-- Created with Inkscape (http://www.inkscape.org/) -->

<svg
   xmlns:dc="http://purl.org/dc/elements/1.1/"
   xmlns:cc="http://creativecommons.org/ns#"
   xmlns:rdf="http://www.w3.org/1999/02/22-rdf-syntax-ns#"
   xmlns:svg="http://www.w3.org/2000/svg"
   xmlns="http://www.w3.org/2000/svg"
   xmlns:sodipodi="http://sodipodi.sourceforge.net/DTD/sodipodi-0.dtd"
   xmlns:inkscape="http://www.inkscape.org/namespaces/inkscape"
   width="324.56189mm"
   height="400mm"
   viewBox="0 0 324.56189 400"
   version="1.1"
   id="svg8"
   inkscape:version="0.92.5 (2060ec1f9f, 2020-04-08)"
   sodipodi:docname="letter-M.svg">
  <defs
     id="defs2" />
  <sodipodi:namedview
     id="base"
     pagecolor="#ffffff"
     bordercolor="#666666"
     borderopacity="1.0"
     inkscape:pageopacity="0.0"
     inkscape:pageshadow="2"
     inkscape:zoom="0.7"
     inkscape:cx="-7.17053"
     inkscape:cy="612.36375"
     inkscape:document-units="mm"
     inkscape:current-layer="layer1"
     showgrid="false"
     inkscape:window-width="1920"
     inkscape:window-height="1136"
     inkscape:window-x="0"
     inkscape:window-y="27"
     inkscape:window-maximized="0"
     fit-margin-top="50"
     fit-margin-left="50"
     fit-margin-right="50"
     fit-margin-bottom="50" />
  <metadata
     id="metadata5">
    <rdf:RDF>
      <cc:Work
         rdf:about="">
        <dc:format>image/svg+xml</dc:format>
        <dc:type
           rdf:resource="http://purl.org/dc/dcmitype/StillImage" />
        <dc:title></dc:title>
      </cc:Work>
    </rdf:RDF>
  </metadata>
  <g
     inkscape:label="Layer 1"
     inkscape:groupmode="layer"
     id="layer1"
     transform="translate(65.394331,102.44355)">
    <ellipse
       style="opacity:1;vector-effect:none;fill:#000000;fill-opacity:1;fill-rule:evenodd;stroke:none;stroke-width:0.11903508;stroke-linecap:butt;stroke-linejoin:miter;stroke-miterlimit:4;stroke-dasharray:none;stroke-dashoffset:0;stroke-opacity:1"
       id="ellipse850"
       cx="155.27676"
       cy="24.869755"
       rx="3.5471859"
       ry="10.641558"
       transform="rotate(-6.4285895)" />
    <path
       id="path860"
       style="opacity:1;vector-effect:none;fill:#000000;fill-opacity:1;stroke:none;stroke-width:0.21166666;stroke-linecap:butt;stroke-linejoin:miter;stroke-miterlimit:4;stroke-dasharray:none;stroke-dashoffset:0;stroke-opacity:1"
       d="m 170.20236,3.7329016 c 18.29977,8.7005074 30.5627,0.586157 51.46231,6.1870947 -48.53164,6.7266027 -45.91009,13.9495007 -48.86279,25.6201647 -5.19067,20.516316 40.67276,37.952787 45.06036,63.546462 3.87769,22.619297 -2.0214,50.608587 -18.84366,66.218867 -16.61838,15.42109 -47.52005,15.01322 -66.62322,13.68108 C 83.939072,169.62194 43.705804,112.34108 12.575832,86.098349 -14.515944,70.099318 -44.895758,50.59232 -41.313111,45.990638 c 13.11278,-12.812289 48.2428833,6.908619 72.546436,8.071459 22.992919,1.10013 48.941949,-3.243707 63.723972,-20.91119 8.255133,-21.478503 26.179333,-42.5015678 44.386323,-44.577914 10.94676,-1.24838 24.60115,4.7268392 30.85874,15.1599086 z M 176.13245,-4.44653 C 168.31047,-17.487867 153.60483,-25.901834 139.92138,-24.341358 117.16264,-21.745926 99.00962,-5.388968 88.690703,21.45916 70.213174,43.543517 44.231767,48.79689 18.485143,45.708276 -1.5158679,45.436521 -33.128356,19.603582 -49.519331,35.618944 c -6.32532,6.180369 -3.521488,20.990563 3.284181,26.32629 13.465198,5.650127 25.748423,15.188411 37.1461942,24.753295 35.8985728,29.712231 61.3553748,66.375671 99.4917438,89.528651 11.993492,7.28137 25.603482,12.30402 39.415852,14.76988 23.87896,1.66517 61.1601,3.07811 82.80655,-14.739 17.44994,-22.53813 27.01204,-52.99339 21.19223,-79.938777 C 228.23264,70.462088 177.05262,60.461724 183.63408,34.840074 189.68731,11.274809 235.0748,17.365233 251.32715,7.5395683 225.20264,0.53839663 199.00717,6.4291033 176.13245,-4.44653 Z"
       inkscape:connector-curvature="0"
       sodipodi:nodetypes="ccsaacccscsccsccsccsccsscc" />
  </g>
</svg>
